<?xml version="1.0" encoding="UTF-8"?>
<!DOCTYPE svg PUBLIC "-//W3C//DTD SVG 1.0//EN" "http://www.w3.org/TR/2001/REC-SVG-20010904/DTD/svg10.dtd">
<!-- Creator: CorelDRAW X8 -->
<svg xmlns="http://www.w3.org/2000/svg" xml:space="preserve" width="32.6113mm" height="54.7166mm" version="1.0" style="shape-rendering:geometricPrecision; text-rendering:geometricPrecision; image-rendering:optimizeQuality; fill-rule:evenodd; clip-rule:evenodd"
viewBox="0 0 85 142"
 xmlns:xlink="http://www.w3.org/1999/xlink">
 <defs>
  <style type="text/css">
   <![CDATA[
    .fil0 {fill:#fff}
   ]]>
  </style>
 </defs>
 <g id="Capa_x0020_1">
  <metadata id="CorelCorpID_0Corel-Layer"/>
  <path class="fil0" d="M57 17c1,0 19,0 22,0l0 110 -22 0 0 6c0,0 19,0 22,0 1,0 3,0 5,-1 1,-1 1,-2 1,-4l0 -112c0,-2 0,-3 -1,-4 -1,-1 -4,-1 -5,-1 -3,0 -22,0 -22,0l0 6z"/>
  <path class="fil0" d="M51 142c0,-1 0,-10 0,-12l0 -126c0,-6 -4,-4 -7,-3 -2,1 -3,1 -5,2 -12,3 -24,7 -37,11 -1,1 -2,2 -2,4l0 108c0,2 0,4 1,6 1,1 3,1 4,1l24 6c2,1 11,3 13,3 1,0 8,0 9,0zm-45 -123l0 109 39 10 0 -131c0,0 -19,6 -20,6l-14 4c-2,1 -4,1 -5,2z"/>
  <path class="fil0" d="M39 68c-4,1 -2,10 1,8 2,-1 3,-3 2,-5 0,-1 -1,-4 -3,-3z"/>
 </g>
</svg>
