<?xml version="1.0" encoding="UTF-8"?>
<!DOCTYPE svg PUBLIC "-//W3C//DTD SVG 1.0//EN" "http://www.w3.org/TR/2001/REC-SVG-20010904/DTD/svg10.dtd">
<!-- Creator: CorelDRAW X8 -->
<svg xmlns="http://www.w3.org/2000/svg" xml:space="preserve" width="43.1587mm" height="25.1742mm" version="1.0" style="shape-rendering:geometricPrecision; text-rendering:geometricPrecision; image-rendering:optimizeQuality; fill-rule:evenodd; clip-rule:evenodd"
viewBox="0 0 180 105"
 xmlns:xlink="http://www.w3.org/1999/xlink">
 <defs>
  <style type="text/css">
   <![CDATA[
    .fil0 {fill:#fff}
   ]]>
  </style>
 </defs>
 <g id="Capa_x0020_1">
  <metadata id="CorelCorpID_0Corel-Layer"/>
  <path class="fil0" d="M38 68c5,4 19,16 26,21 3,3 5,5 8,8 8,6 10,8 23,4 4,-1 3,4 11,4 7,0 8,-4 9,-7 4,0 5,1 9,-1 2,-2 3,-4 3,-8 5,0 8,1 11,-2 3,-3 3,-7 2,-12 0,0 2,-2 4,-2 1,2 3,4 7,4 3,0 14,-6 17,-7 6,-2 13,-4 12,-12 0,-2 -16,-37 -18,-41 -1,-3 -2,-6 -3,-8 -4,-9 -11,-5 -16,-3l-17 7c-2,2 -4,4 -4,8 -3,0 -20,-7 -32,-7 -6,0 -13,1 -19,1 -6,0 -13,0 -19,0 0,-8 -6,-9 -12,-10 -4,-1 -15,-5 -18,-5 -8,0 -9,7 -10,13 -2,6 -3,12 -5,18 -2,6 -3,12 -5,18 -2,6 -4,13 2,17 2,1 14,4 17,5 3,0 8,2 10,2 4,0 5,-3 7,-5zm54 28c-1,-2 -7,-6 -7,-8 -1,-2 2,-4 4,-2 1,0 3,3 4,4 2,2 5,4 8,7 3,4 9,4 9,-2 -2,-1 -12,-11 -15,-14 -1,-1 -2,-1 -3,-2 -3,-3 -1,-9 5,-3l15 14c5,5 11,4 10,-2 -1,-2 -7,-7 -8,-9 -4,-4 -8,-8 -12,-12 -4,-4 0,-6 2,-5 1,1 16,16 18,17 2,2 3,4 6,5 4,1 7,0 7,-4 0,-3 -7,-11 -9,-13 -4,-5 -7,-8 -11,-12 -4,-4 -7,-9 -12,-12 -15,-10 -21,9 -32,8 -7,-1 -10,-6 -10,-13 1,-9 5,-13 7,-18 -3,0 -14,0 -15,1 -2,0 -3,0 -3,2 -2,5 -6,24 -8,31 -1,2 -2,6 -2,8 0,1 2,2 5,5 4,4 35,30 38,31 2,0 7,0 9,-2zm-72 -90c-2,1 -2,6 -3,10l-11 40c-2,6 1,5 5,7 3,0 19,5 21,4 2,-1 5,-17 6,-20l8 -31c2,-5 -1,-4 -5,-6 -2,0 -18,-5 -20,-5 -1,1 -1,1 -1,1zm130 3c-6,3 -13,6 -19,8 -6,3 -4,4 -2,9 1,3 3,6 4,9l15 34c1,2 2,3 4,2l19 -8c2,-1 4,-1 4,-3 0,-2 -1,-4 -2,-6l-19 -43c-1,-2 -1,-3 -4,-2zm-13 62c1,-1 2,-2 4,-3 0,-2 -13,-31 -15,-35 -3,-7 -1,-6 -9,-8 -8,-2 -18,-6 -27,-6 -2,0 -15,1 -16,1 -1,1 -5,9 -6,11 -1,4 -3,10 0,13 8,8 18,-17 35,-7 7,4 12,10 18,16 2,3 5,6 8,9 1,1 6,8 8,9zm-120 -24c-10,2 -6,16 3,14 4,-1 7,-4 6,-9 -1,-3 -5,-6 -9,-5zm143 2c-10,2 -7,16 3,14 3,0 6,-4 5,-8 0,-4 -4,-7 -8,-6zm-143 3c-2,2 1,5 3,3 2,-1 -1,-5 -3,-3zm146 3c-2,-2 -4,0 -4,2 1,2 5,2 4,-2z"/>
 </g>
</svg>
