<?xml version="1.0" encoding="UTF-8"?>
<!DOCTYPE svg PUBLIC "-//W3C//DTD SVG 1.0//EN" "http://www.w3.org/TR/2001/REC-SVG-20010904/DTD/svg10.dtd">
<!-- Creator: CorelDRAW X8 -->
<svg xmlns="http://www.w3.org/2000/svg" xml:space="preserve" width="48.4706mm" height="48.3318mm" version="1.0" style="shape-rendering:geometricPrecision; text-rendering:geometricPrecision; image-rendering:optimizeQuality; fill-rule:evenodd; clip-rule:evenodd"
viewBox="0 0 233 232"
 xmlns:xlink="http://www.w3.org/1999/xlink">
 <defs>
  <style type="text/css">
   <![CDATA[
    .fil0 {fill:#201E1E}
   ]]>
  </style>
 </defs>
 <g id="Capa_x0020_1">
  <metadata id="CorelCorpID_0Corel-Layer"/>
  <path class="fil0" d="M233 209l0 -158c0,-21 0,-18 -25,-29 -13,-6 -26,-12 -39,-17 -9,-4 -10,-7 -19,-3 -7,3 -13,5 -20,8 -14,5 -26,10 -40,16 -17,7 -11,6 -38,-5 -6,-3 -34,-17 -39,-17 -9,0 -13,6 -13,14 0,9 0,19 0,28l0 138c0,11 0,15 9,19 13,6 26,11 38,17 7,3 13,5 19,8 11,5 9,5 20,1l59 -24c9,-4 9,-6 20,-1 13,6 25,12 38,17 16,7 30,14 30,-12zm-72 -15c11,4 33,14 46,20 23,10 18,17 18,-85 0,-9 1,-88 -1,-90 -1,-2 -56,-26 -63,-29l0 184zm-153 -175l0 169c0,8 8,9 14,12l50 22 0 -183c-3,-3 -26,-12 -33,-15 -6,-3 -11,-5 -17,-8 -6,-3 -14,-9 -14,3zm72 20l0 183c6,-1 13,-5 18,-7 9,-3 50,-19 54,-22l1 -183 -73 29z"/>
 </g>
</svg>
