<?xml version="1.0" encoding="UTF-8"?>
<!DOCTYPE svg PUBLIC "-//W3C//DTD SVG 1.0//EN" "http://www.w3.org/TR/2001/REC-SVG-20010904/DTD/svg10.dtd">
<!-- Creator: CorelDRAW X8 -->
<svg xmlns="http://www.w3.org/2000/svg" xml:space="preserve" width="47.4134mm" height="46.5483mm" version="1.0" style="shape-rendering:geometricPrecision; text-rendering:geometricPrecision; image-rendering:optimizeQuality; fill-rule:evenodd; clip-rule:evenodd"
viewBox="0 0 249 245"
 xmlns:xlink="http://www.w3.org/1999/xlink">
 <defs>
  <style type="text/css">
   <![CDATA[
    .fil0 {fill:#201E1E}
   ]]>
  </style>
 </defs>
 <g id="Capa_x0020_1">
  <metadata id="CorelCorpID_0Corel-Layer"/>
  <g id="_1875489528896">
   <polygon class="fil0" points="217,40 217,28 32,28 32,40 "/>
   <path class="fil0" d="M29 22l190 0c5,3 6,10 18,8 16,-2 17,-25 2,-29 -10,-3 -15,3 -19,8l-191 0c-22,-27 -42,15 -18,21 10,2 14,-3 18,-8z"/>
   <polygon class="fil0" points="217,62 217,51 32,51 32,62 "/>
   <polygon class="fil0" points="217,85 217,74 32,74 32,85 "/>
   <polygon class="fil0" points="217,108 217,97 32,97 32,108 "/>
   <polygon class="fil0" points="217,131 217,120 32,120 32,131 "/>
   <polygon class="fil0" points="217,154 217,143 32,142 32,154 "/>
   <polygon class="fil0" points="217,176 217,165 32,165 32,176 "/>
   <polygon class="fil0" points="217,199 217,188 32,188 32,199 "/>
   <polygon class="fil0" points="217,222 217,211 32,211 32,222 "/>
   <polygon class="fil0" points="217,245 217,234 32,234 32,245 "/>
  </g>
 </g>
</svg>
